<?xml version="1.0" encoding="UTF-8" standalone="no"?>
<!DOCTYPE svg PUBLIC "-//W3C//DTD SVG 1.1//EN" "http://www.w3.org/Graphics/SVG/1.1/DTD/svg11.dtd">
<svg width="100%" height="100%" viewBox="0 0 256 256" version="1.1" xmlns="http://www.w3.org/2000/svg" xmlns:xlink="http://www.w3.org/1999/xlink" xml:space="preserve" xmlns:serif="http://www.serif.com/" style="fill-rule:evenodd;clip-rule:evenodd;stroke-linecap:round;stroke-linejoin:round;stroke-miterlimit:1.5;">
    <g transform="matrix(1,0,0,1,12.1163,17.2061)">
        <g transform="matrix(0.341613,0,0,0.341613,-45.6989,-55.8742)">
            <path d="M767.278,782.747C751.674,736.852 729.666,698.633 721.139,623.908C716.789,585.784 738.419,551.988 768.148,488.777C776.502,471.016 787.015,438.062 790.925,418.468C794.009,403.02 793.665,386.493 791.612,371.216C789.296,353.98 787.528,349.701 784.763,330C783.905,323.887 775.373,292.59 750.785,263.39C711.686,216.956 551.804,142.606 437.278,218.033C430.385,222.573 380.347,261.204 373.59,321.151C368.661,364.881 374.125,381.033 368.715,394.51C335.241,477.896 326.739,492.715 356.547,508.648C374.561,518.276 363.949,535.174 364.463,557.186C364.865,574.418 401.593,586.525 410,590C402.516,603.198 376.009,594.604 379.967,624.293C386.512,673.395 382.226,707.06 429.953,713.916C467.633,719.329 497.738,694.997 516.219,750C517.109,752.651 519.164,786.968 520,790" style="fill:none;stroke:black;stroke-width:30.49px;"/>
        </g>
        <g transform="matrix(0.341613,0,0,0.341613,-45.6989,-55.8742)">
            <path d="M154.741,473.905C198.62,506.745 234.83,519.082 282.219,530" style="fill:none;stroke:black;stroke-width:30.49px;"/>
        </g>
        <g transform="matrix(0.341613,0,0,0.341613,-45.6989,-55.8742)">
            <path d="M152.801,597.202C219.79,600.214 219.607,596.929 282.219,598.044" style="fill:none;stroke:black;stroke-width:30.49px;"/>
        </g>
        <g transform="matrix(0.341613,0,0,0.341613,-45.6989,-55.8742)">
            <path d="M154.869,719.611C180.764,693.433 180.643,693.269 212.382,674.201C217.638,671.043 258.56,654.18 289.537,651.038" style="fill:none;stroke:black;stroke-width:30.49px;"/>
        </g>
    </g>
</svg>
