<?xml version="1.0" encoding="UTF-8" standalone="no"?>
<!DOCTYPE svg PUBLIC "-//W3C//DTD SVG 1.1//EN" "http://www.w3.org/Graphics/SVG/1.1/DTD/svg11.dtd">
<svg width="100%" height="100%" viewBox="0 0 256 256" version="1.1" xmlns="http://www.w3.org/2000/svg" xmlns:xlink="http://www.w3.org/1999/xlink" xml:space="preserve" xmlns:serif="http://www.serif.com/" style="fill-rule:evenodd;clip-rule:evenodd;stroke-linecap:round;stroke-linejoin:round;stroke-miterlimit:1.5;">
    <g transform="matrix(0.285211,0,0,0.285211,-31.0049,-19.3767)">
        <g transform="matrix(0.681758,0,0,0.681758,169.288,59.3675)">
            <circle cx="680" cy="190" r="90"/>
        </g>
        <path d="M357.648,909.422C383.399,823.306 384.25,816.718 413.747,755.15C447.027,685.682 388.535,672.701 340,530" style="fill:none;stroke:black;stroke-width:58.44px;"/>
        <path d="M340,500C448.454,318.417 414.509,334.75 512.212,235.075" style="fill:none;stroke:black;stroke-width:87.65px;"/>
        <path d="M482.504,610.576C484.697,517.951 485.113,329.154 483.219,298.526" style="fill:none;stroke:black;stroke-width:58.44px;"/>
        <path d="M563.692,611.478C556.886,498.034 564.468,497.474 545.023,385.277C534.521,324.679 553.492,301.579 536.463,229.223" style="fill:none;stroke:black;stroke-width:58.44px;"/>
    </g>
</svg>
