<svg width="343" height="234" viewBox="0 0 343 234" fill="none" xmlns="http://www.w3.org/2000/svg">
<mask id="mask0_8_1985" style="mask-type:luminance" maskUnits="userSpaceOnUse" x="0" y="0" width="343" height="234">
<path d="M306.469 223.266C296.636 226.415 284.66 227.269 275.148 226.612C275.148 226.612 100.261 243.458 37.0448 226.186C-9.74329 213.403 -4.09466 167.894 10.2232 138.765C24.7049 109.305 -13.3093 52.3582 47.798 19.3356C82.9459 0.34297 114.471 30.7376 175.233 8.2987C230.091 -11.9598 300.854 6.16101 318.159 48.6476C330.063 77.8755 315.056 109.383 330.063 124.654C354.401 149.422 343.21 211.5 306.469 223.266Z" fill="white"/>
</mask>
<g mask="url(#mask0_8_1985)">
<path d="M306.469 223.266C296.636 226.415 284.66 227.269 275.148 226.612C275.148 226.612 100.261 243.458 37.0448 226.186C-9.74329 213.403 -4.09466 167.894 10.2232 138.765C24.7049 109.305 -13.3093 52.3582 47.798 19.3356C82.9459 0.34297 114.471 30.7376 175.233 8.2987C230.091 -11.9598 300.854 6.16101 318.159 48.6476C330.063 77.8755 315.056 109.383 330.063 124.654C354.401 149.422 343.21 211.5 306.469 223.266Z" fill="#88E3E7"/>
<path d="M256.734 99.4232C256.734 99.4232 247.91 105.243 244.292 105.095C240.673 104.946 230.237 103.149 226.55 104.325C225.402 104.692 216.682 108.16 215.703 110.536C215.04 112.143 218.813 115.109 223.281 113.43C231.048 110.511 236.023 112.42 239.563 113.364C245.6 114.974 249.147 115.46 246.344 115.84C246.344 115.84 237.567 115.745 233.839 116.573C232.832 116.796 225.255 119.91 224.774 122.151C224.514 123.363 226.866 126.818 233.899 124.58C238.52 123.109 241.914 125.417 245.395 127C248.409 128.37 256.481 135.782 256.481 135.782L263.707 123.755L256.734 99.4232Z" fill="#DB7665"/>
<path d="M240.683 93.9688C240.683 93.9688 225.31 90.3794 219.189 90.6576C216.733 90.7692 208.72 91.8931 207.543 94.0404C205.603 97.5844 211.79 100.721 219.13 99.5582C226.412 98.404 232.938 104.913 238.15 107.818C251.106 115.043 258.903 119.399 258.903 119.399L240.684 93.9702L240.683 93.9688Z" fill="#EA8F7D"/>
<path d="M226.847 76.713C229.506 77.6689 247.463 85.9194 250.387 87.7927C257.607 92.4096 279.972 113.259 283.849 117.274C290.999 124.677 294.704 148.367 299.663 164.221C299.675 164.311 302.183 172.654 306.638 181.845C307.918 184.504 309.336 187.184 310.701 189.559C302.231 199.207 293.869 206.951 285.661 213.211C282.054 214.367 278.556 215.43 275.155 216.398C273.707 212.795 270.041 203.699 268.235 200.273C266.772 197.498 265.15 193.056 262.52 189.564V189.562C262.52 189.562 262.516 189.559 262.516 189.557L262.513 189.555C260.734 187.192 258.497 185.271 255.534 184.586C249.766 183.249 240.887 175.978 236.495 171.999C234.496 170.205 232.349 168.124 232.362 168.123C227.831 163.708 224.816 160.093 224.455 159.695C221.323 156.082 216.742 152.159 212.721 149.142C211.305 148.074 210.433 147.473 209.403 146.753C208.337 146.003 207.418 145.463 206.331 144.842C204.701 143.937 200.526 141.531 198.562 140.264C197.432 139.542 194.494 137.64 193.95 136.418C193.354 135.082 196.518 131.523 198.783 130.451C199.953 129.903 201.753 129.761 203.056 129.87C207.48 130.139 213.426 133.122 217.334 135.214C221.379 137.353 225.809 140.318 231.54 141.966C235.054 142.925 237.915 143.167 241.847 142.484C245.003 141.93 248.103 140.87 250.533 136.698C250.822 136.196 251.856 134.68 252.817 132.544C254.827 128.071 256.513 120.891 250.346 114.723C247.669 112.061 245.746 108.3 243.795 105.068C243.795 105.066 243.793 105.066 243.792 105.065C241.775 101.726 239.643 98.7924 236.411 97.7167C232.842 96.528 229.36 94.1355 226.207 92.0184C224.644 90.9675 224.706 91.0185 224.696 91.0047H224.695C221.722 89.0254 218.524 87.0186 214.828 85.48C205.819 81.7212 205.758 76.242 209.094 73.9776C210.897 72.7558 224.802 75.9789 226.849 76.7158L226.847 76.713Z" fill="#F9A58F"/>
<path d="M312.545 185.261L299.602 164.124L262.508 189.541L270.94 210.611L312.545 185.261Z" fill="white"/>
<path d="M356.512 237.498C353.458 237.253 344.729 249.465 329.657 255.352C312.746 261.958 289.468 262.346 288.966 262.484C286.416 255.582 268.385 206.596 268.385 206.596C268.438 206.56 303.648 183.782 311.858 178.463L356.511 237.498H356.512Z" fill="#016367"/>
<path d="M270.315 194.475C271.043 195.096 271.131 196.189 270.511 196.919C269.89 197.648 268.797 197.736 268.067 197.116C267.337 196.495 267.248 195.402 267.87 194.672C268.491 193.942 269.584 193.853 270.315 194.475Z" fill="#0B0755"/>
<g opacity="0.97">
<path d="M240.033 73.815L189.478 45.6422L138.573 136.995L203.319 173.076L247.223 94.2911L240.033 73.815Z" fill="white"/>
<path d="M247.347 95.196L232.559 86.9566C232.285 86.8037 232.216 86.4084 232.404 86.0709L239.423 73.4748C239.61 73.1373 239.985 72.9886 240.258 73.1415C240.532 73.2944 240.6 73.6897 240.413 74.0271L233.733 86.0144L248.025 93.9784C248.299 94.1313 248.367 94.5266 248.18 94.8641C247.993 95.2015 247.618 95.3503 247.345 95.1974L247.347 95.196Z" fill="#D8E4FD"/>
<path d="M227.577 83.2032L200.57 68.154C200.232 67.9667 200.113 67.5411 200.3 67.205C200.487 66.8675 200.913 66.7477 201.249 66.935L228.256 81.9842C228.594 82.1716 228.714 82.5972 228.526 82.9333C228.339 83.2707 227.913 83.3906 227.577 83.2032Z" fill="#002F31"/>
<path d="M235.616 103.13L181.058 72.7269C180.72 72.5396 180.601 72.114 180.788 71.7779C180.975 71.4418 181.399 71.3206 181.737 71.5079L236.295 101.911C236.632 102.098 236.752 102.524 236.565 102.86C236.377 103.197 235.952 103.317 235.616 103.13Z" fill="#002F31"/>
<path d="M233.327 107.237L178.769 76.8342C178.431 76.6469 178.311 76.2213 178.499 75.8852C178.686 75.5478 179.11 75.4279 179.448 75.6153L234.006 106.018C234.343 106.205 234.463 106.631 234.276 106.967C234.088 107.305 233.663 107.424 233.327 107.237Z" fill="#002F31"/>
<path d="M230.059 113.102L175.501 82.6991C175.164 82.5118 175.044 82.0862 175.231 81.7501C175.419 81.4126 175.843 81.2928 176.18 81.4801L230.738 111.883C231.076 112.07 231.196 112.495 231.008 112.832C230.821 113.169 230.395 113.289 230.059 113.102Z" fill="#002F31"/>
<path d="M227.771 117.209L173.213 86.8064C172.875 86.6191 172.755 86.1935 172.943 85.8574C173.13 85.5199 173.556 85.4001 173.892 85.5874L228.45 115.99C228.787 116.178 228.907 116.603 228.72 116.939C228.532 117.277 228.107 117.397 227.771 117.209Z" fill="#002F31"/>
<path d="M225.481 121.318L170.923 90.9152C170.586 90.7278 170.466 90.3022 170.653 89.9662C170.841 89.6287 171.266 89.5089 171.602 89.6962L226.16 120.099C226.498 120.286 226.618 120.712 226.43 121.048C226.243 121.386 225.817 121.505 225.481 121.318Z" fill="#002F31"/>
<path d="M223.192 125.425L168.634 95.0225C168.297 94.8351 168.177 94.4095 168.364 94.0735C168.551 93.736 168.977 93.6162 169.313 93.8035L223.871 124.206C224.208 124.394 224.328 124.819 224.141 125.155C223.954 125.493 223.528 125.613 223.192 125.425Z" fill="#002F31"/>
<path d="M217.943 134.844L163.385 104.441C163.047 104.254 162.927 103.828 163.115 103.492C163.302 103.155 163.726 103.035 164.064 103.222L218.622 133.625C218.959 133.812 219.079 134.238 218.892 134.574C218.704 134.911 218.279 135.031 217.943 134.844Z" fill="#002F31"/>
<path d="M215.655 138.951L161.097 108.548C160.759 108.361 160.64 107.935 160.827 107.599C161.014 107.262 161.438 107.142 161.776 107.329L216.334 137.732C216.671 137.92 216.791 138.345 216.604 138.681C216.416 139.019 215.991 139.139 215.655 138.951Z" fill="#002F31"/>
<path d="M213.366 143.058L158.808 112.656C158.47 112.468 158.351 112.044 158.538 111.707C158.725 111.369 159.149 111.249 159.487 111.437L214.045 141.84C214.382 142.027 214.502 142.452 214.315 142.789C214.127 143.126 213.702 143.246 213.366 143.058Z" fill="#002F31"/>
<path d="M211.076 147.167L156.519 116.764C156.181 116.577 156.061 116.153 156.249 115.815C156.436 115.478 156.86 115.358 157.198 115.545L211.755 145.948C212.093 146.136 212.213 146.561 212.025 146.897C211.838 147.235 211.413 147.355 211.076 147.167Z" fill="#002F31"/>
</g>
<path d="M252.487 183.493C244.757 179.938 233.011 169.653 224.699 159.975C219.518 153.944 211.487 148.08 208.269 145.992C205.739 144.355 195.027 138.852 193.949 136.417C193.318 134.98 197.023 130.943 199.319 130.239C204.239 128.726 210.976 131.524 221.392 137.459C231.318 143.118 236.73 143.349 241.678 142.512C241.792 142.492 241.902 142.472 242.016 142.452L252.487 183.493Z" fill="#F9A58F"/>
<path d="M62.6324 218.748C59.1862 217.499 55.8791 216.244 52.7002 214.974C54.5431 208.461 58.4879 194.519 58.8984 186.949C58.8984 186.946 58.8984 186.942 58.8984 186.94C58.9865 179.683 55.9756 180.485 52.9798 172.139C49.9909 163.962 48.1672 152.571 47.5598 143.925C47.0088 135.947 45.6659 127.818 42.5957 120.131C36.9251 106.42 36.9209 105.508 39.1385 104.601C40.7914 103.897 43.9056 103.524 45.5888 104.139C51.809 106.464 55.7593 117.151 58.7276 123.909C71.4972 85.3189 75.6955 55.1516 85.2875 60.1638C89.0602 62.1362 82.8482 94.3076 79.705 106.221C78.986 108.946 81.1995 106.446 81.3992 106.07C87.5437 94.4495 94.2983 54.6447 103.85 58.5234C110.776 61.3346 98.2721 101.452 95.0325 112.923C94.4526 114.977 96.0999 114.621 96.4925 113.959C101.816 104.955 107.279 80.3121 112.181 75.1704C114.982 72.231 120.236 76.8246 117.411 90.7609C116.474 95.382 112.168 111.412 110.349 118.207C109.879 119.959 110.929 119.129 111.364 118.515C115.303 112.964 119.814 101.745 123.044 98.6298C126.657 95.1437 129.398 101.831 127.39 110.176C121.721 133.739 116.84 166.745 103.269 187.077C99.5627 196.454 97.0655 206.196 95.7969 215.448C83.6044 217.828 72.6198 218.812 62.6311 218.75L62.6324 218.748Z" fill="#F9A58F"/>
<path d="M76.6389 159.51C76.6858 159.524 76.7354 159.529 76.7849 159.525C77.0095 159.507 77.1761 159.312 77.1582 159.087C76.3676 149.141 73.3691 142.29 67.9904 138.141C63.0745 134.348 58.6476 122.698 58.6036 122.581C58.5251 122.37 58.2895 122.264 58.0802 122.344C57.8694 122.424 57.7634 122.658 57.8433 122.868C58.0265 123.355 62.3969 134.852 67.4945 138.785C72.6817 142.786 75.577 149.448 76.3483 159.152C76.3621 159.325 76.4819 159.464 76.6389 159.51Z" fill="#F2806D"/>
<path d="M50.6189 214.105L55.5706 189.763L101.886 200.484L101.388 223.172L50.6189 214.105Z" fill="white"/>
<path d="M26.4956 278.482C29.4349 277.178 42.6633 285.53 59.8212 285.731C79.0756 285.957 102.327 278.119 102.877 278.07C102.828 270.712 102.424 218.514 102.424 218.514C102.323 218.493 58.0238 209.405 48.7623 207.5L26.497 278.482H26.4956Z" fill="#016367"/>
<path d="M95.9814 207.852C95.4897 208.689 95.8106 209.744 96.699 210.208C97.5874 210.673 98.7073 210.37 99.199 209.532C99.6907 208.695 99.3698 207.638 98.4814 207.175C97.593 206.711 96.4732 207.014 95.9814 207.852Z" fill="#0B0755"/>
<path d="M109.244 147.187C111.612 143.244 110.336 138.13 106.394 135.763C102.452 133.395 97.338 134.67 94.9703 138.612C92.6026 142.554 93.878 147.669 97.8201 150.036C101.762 152.404 106.876 151.129 109.244 147.187Z" fill="white"/>
<path d="M106.137 136.19C105.474 135.792 104.616 136.006 104.218 136.669L97.7388 147.457C97.3408 148.119 97.5556 148.977 98.2168 149.375C98.8793 149.773 99.7374 149.558 100.135 148.897L106.615 138.11C107.013 137.447 106.798 136.589 106.135 136.191L106.137 136.19Z" fill="#DDE7FE"/>
<path d="M99.0876 120.089C96.0725 118.957 92.7117 120.482 91.5781 123.497C90.4459 126.512 91.9707 129.874 94.9857 131.006C98.0008 132.139 101.363 130.614 102.495 127.599C103.627 124.584 102.103 121.222 99.0876 120.089Z" fill="#016367"/>
<g style="mix-blend-mode:overlay">
<path d="M91.9046 123.62C91.7145 124.127 91.9707 124.691 92.4775 124.881L100.728 127.98C101.235 128.17 101.8 127.914 101.99 127.407C102.18 126.901 101.924 126.336 101.418 126.146L93.1676 123.047C92.6607 122.857 92.096 123.113 91.9059 123.62H91.9046Z" fill="#016367"/>
</g>
<path d="M86.6346 127.529C85.0727 125.901 82.4873 125.847 80.8593 127.409L73.5647 134.406C71.9366 135.968 71.8829 138.553 73.4448 140.181C75.0068 141.809 77.5921 141.863 79.2202 140.301L86.5148 133.304C88.1428 131.742 88.1965 129.157 86.6346 127.529Z" fill="white"/>
<path d="M86.6345 127.529C85.0726 125.901 82.4873 125.847 80.8592 127.409L77.2119 130.907L82.8674 136.804L86.5147 133.305C88.1428 131.743 88.1965 129.158 86.6345 127.53V127.529Z" fill="#E25B54"/>
<path d="M87.7888 157.199C90.0904 156.717 91.5821 154.535 91.1193 152.327L89.0463 142.433C88.5835 140.225 86.3425 138.826 84.0409 139.308C81.7393 139.79 80.2476 141.972 80.7104 144.18L82.7834 154.073C83.2462 156.281 85.4872 157.681 87.7888 157.199Z" fill="white"/>
<path d="M87.7885 157.199C90.0901 156.717 91.5818 154.535 91.119 152.327L90.0832 147.379L81.7473 149.126L82.7831 154.073C83.2459 156.281 85.4869 157.681 87.7885 157.199Z" fill="#E25B54"/>
</g>
</svg>
