<svg width="303" height="303" viewBox="0 0 303 303" fill="none" xmlns="http://www.w3.org/2000/svg">
<path d="M151.5 303C235.171 303 303 235.171 303 151.5C303 67.8288 235.171 0 151.5 0C67.8288 0 0 67.8288 0 151.5C0 235.171 67.8288 303 151.5 303Z" fill="white"/>
<path d="M151.5 303C235.171 303 303 235.171 303 151.5C303 67.8288 235.171 0 151.5 0C67.8288 0 0 67.8288 0 151.5C0 235.171 67.8288 303 151.5 303Z" fill="#88E3E7"/>
<path d="M263.237 244.497L214.347 237.199C212.788 236.966 211.713 235.514 211.946 233.954L222.113 165.844C222.346 164.285 223.799 163.209 225.358 163.442L274.248 170.741C275.807 170.973 276.883 172.426 276.65 173.985L266.482 242.096C266.249 243.655 264.796 244.73 263.237 244.497Z" fill="#002F31"/>
<path d="M272.163 174.339L226.29 167.493L216.431 233.559L262.303 240.405L272.163 174.339Z" fill="white"/>
<path opacity="0.55" d="M262.353 240.075L262.301 240.426L216.43 233.579L226.293 167.512L243.965 170.15C237.932 176.269 233.711 184.289 232.345 193.437C229.19 214.573 242.342 234.37 262.353 240.075Z" fill="#F0F5FF"/>
<path opacity="0.22" d="M239.101 187.084L264.034 190.806C264.427 190.864 264.792 190.594 264.851 190.201C264.909 189.809 264.639 189.443 264.246 189.384L239.313 185.662C238.921 185.604 238.555 185.874 238.497 186.267C238.438 186.659 238.709 187.024 239.101 187.084Z" fill="#016367"/>
<path opacity="0.22" d="M238.531 190.902L263.464 194.625C263.857 194.683 264.223 194.413 264.281 194.02C264.339 193.628 264.069 193.261 263.676 193.203L238.743 189.481C238.351 189.423 237.985 189.693 237.927 190.086C237.868 190.478 238.139 190.843 238.531 190.902Z" fill="#016367"/>
<path d="M234.899 187.681C234.63 189.483 232.952 190.725 231.15 190.456C229.348 190.187 228.106 188.509 228.375 186.707C228.644 184.906 230.322 183.664 232.124 183.933C233.926 184.202 235.167 185.88 234.899 187.681Z" fill="#016367"/>
<path d="M230.035 186.956L230.944 188.182L233.398 186.366" stroke="white" stroke-width="0.870941" stroke-miterlimit="10" stroke-linecap="round" stroke-linejoin="round"/>
<path opacity="0.22" d="M237.292 199.202L262.225 202.924C262.617 202.982 262.983 202.712 263.041 202.319C263.1 201.926 262.829 201.561 262.437 201.502L237.504 197.78C237.111 197.722 236.746 197.992 236.687 198.385C236.629 198.778 236.9 199.143 237.292 199.202Z" fill="#016367"/>
<path opacity="0.22" d="M236.722 203.02L261.655 206.743C262.047 206.801 262.413 206.531 262.472 206.138C262.53 205.745 262.26 205.38 261.867 205.321L236.934 201.599C236.542 201.541 236.176 201.811 236.117 202.204C236.059 202.596 236.33 202.962 236.722 203.02Z" fill="#016367"/>
<path d="M233.089 199.799C232.82 201.6 231.143 202.843 229.341 202.574C227.539 202.305 226.297 200.627 226.566 198.826C226.835 197.025 228.513 195.782 230.315 196.051C232.116 196.321 233.358 197.998 233.089 199.799Z" fill="#016367"/>
<path d="M228.227 199.074L229.135 200.301L231.589 198.484" stroke="white" stroke-width="0.870941" stroke-miterlimit="10" stroke-linecap="round" stroke-linejoin="round"/>
<path opacity="0.22" d="M235.483 211.32L260.416 215.042C260.808 215.1 261.174 214.83 261.232 214.437C261.291 214.045 261.02 213.679 260.628 213.621L235.695 209.898C235.302 209.84 234.936 210.11 234.878 210.503C234.82 210.896 235.09 211.261 235.483 211.32Z" fill="#016367"/>
<path opacity="0.22" d="M234.913 215.139L259.845 218.862C260.238 218.92 260.604 218.649 260.662 218.257C260.721 217.864 260.45 217.498 260.057 217.44L235.125 213.718C234.732 213.659 234.366 213.93 234.308 214.323C234.249 214.715 234.52 215.08 234.913 215.139Z" fill="#016367"/>
<path d="M231.28 211.918C231.011 213.719 229.333 214.962 227.531 214.693C225.73 214.424 224.488 212.746 224.757 210.944C225.026 209.143 226.704 207.901 228.505 208.17C230.307 208.439 231.549 210.117 231.28 211.918Z" fill="#016367"/>
<path d="M226.417 211.193L227.326 212.419L229.779 210.602" stroke="white" stroke-width="0.870941" stroke-miterlimit="10" stroke-linecap="round" stroke-linejoin="round"/>
<path opacity="0.22" d="M233.673 223.438L258.606 227.161C258.999 227.219 259.364 226.949 259.423 226.556C259.481 226.164 259.211 225.798 258.818 225.739L233.885 222.017C233.493 221.959 233.127 222.229 233.069 222.622C233.01 223.014 233.281 223.38 233.673 223.438Z" fill="#016367"/>
<path opacity="0.22" d="M233.104 227.257L258.036 230.979C258.428 231.038 258.795 230.767 258.853 230.375C258.911 229.982 258.641 229.616 258.248 229.558L233.316 225.836C232.924 225.777 232.557 226.048 232.499 226.441C232.441 226.833 232.711 227.199 233.104 227.257Z" fill="#016367"/>
<path d="M229.471 224.037C229.202 225.838 227.524 227.081 225.723 226.812C223.921 226.543 222.679 224.865 222.948 223.063C223.217 221.262 224.895 220.019 226.697 220.288C228.498 220.557 229.74 222.235 229.471 224.037Z" fill="#016367"/>
<path d="M224.607 223.311L225.516 224.537L227.97 222.721" stroke="white" stroke-width="0.870941" stroke-miterlimit="10" stroke-linecap="round" stroke-linejoin="round"/>
<path opacity="0.22" d="M261.701 183.128L233.739 178.954C233.192 178.873 232.815 178.364 232.896 177.817L232.918 177.671C232.999 177.124 233.509 176.747 234.056 176.828L262.018 181.002C262.565 181.084 262.942 181.593 262.861 182.14L262.839 182.287C262.757 182.833 262.247 183.211 261.701 183.128Z" fill="#016367"/>
<path d="M260.615 172.635L237.784 169.227L238.221 166.301C238.567 163.985 240.725 162.388 243.04 162.734L257.485 164.89C259.801 165.236 261.398 167.394 261.052 169.709L260.615 172.635Z" fill="#016367"/>
<path d="M112.73 286.741L196.137 282.109C198.029 282.004 199.479 280.384 199.374 278.492L196.849 233.037C196.744 231.144 195.125 229.695 193.232 229.8L109.825 234.432C107.932 234.537 106.483 236.157 106.588 238.049L109.113 283.504C109.218 285.397 110.837 286.846 112.73 286.741Z" fill="white"/>
<path d="M106.992 245.327L197.253 240.314L196.849 233.036C196.744 231.143 195.125 229.694 193.232 229.799L109.825 234.431C107.932 234.536 106.483 236.156 106.588 238.048L106.992 245.327Z" fill="#002F31"/>
<path d="M130.98 238.341L133.163 238.22L133.208 239.036L131.025 239.157L130.98 238.341ZM131.161 240.202L133.629 240.065L133.676 240.908L130.165 241.102L129.913 236.568L133.34 236.378L133.387 237.22L131.003 237.352L131.161 240.202ZM135.344 238.313L137.52 238.193L137.567 239.035L135.391 239.156L135.344 238.313ZM135.56 240.803L134.511 240.861L134.259 236.327L137.686 236.137L137.732 236.979L135.355 237.111L135.56 240.803ZM139.481 238.084L141.657 237.963L141.704 238.805L139.528 238.926L139.481 238.084ZM139.697 240.573L138.648 240.632L138.396 236.097L141.823 235.907L141.869 236.749L139.492 236.881L139.697 240.573ZM142.785 240.402L142.533 235.868L143.582 235.81L143.834 240.344L142.785 240.402ZM147.084 240.242C146.735 240.261 146.405 240.223 146.097 240.127C145.793 240.027 145.524 239.878 145.292 239.678C145.06 239.479 144.874 239.24 144.733 238.962C144.596 238.684 144.518 238.374 144.499 238.033C144.48 237.692 144.523 237.375 144.629 237.084C144.738 236.792 144.897 236.534 145.105 236.31C145.318 236.086 145.571 235.909 145.862 235.781C146.154 235.648 146.477 235.571 146.831 235.552C147.224 235.53 147.582 235.579 147.904 235.7C148.231 235.816 148.51 236 148.741 236.251L148.102 236.91C147.936 236.742 147.756 236.62 147.561 236.544C147.366 236.464 147.157 236.43 146.932 236.443C146.72 236.454 146.528 236.5 146.355 236.579C146.182 236.657 146.034 236.765 145.911 236.902C145.789 237.039 145.696 237.198 145.633 237.379C145.573 237.56 145.55 237.758 145.562 237.974C145.574 238.19 145.619 238.384 145.698 238.558C145.781 238.731 145.891 238.878 146.028 239.001C146.165 239.123 146.323 239.214 146.504 239.273C146.685 239.332 146.881 239.356 147.093 239.344C147.318 239.332 147.523 239.277 147.708 239.18C147.893 239.079 148.058 238.934 148.203 238.744L148.911 239.328C148.71 239.603 148.454 239.819 148.142 239.975C147.834 240.131 147.482 240.22 147.084 240.242ZM149.661 240.021L149.409 235.486L150.458 235.428L150.71 239.962L149.661 240.021ZM152.601 237.142L154.784 237.02L154.829 237.837L152.646 237.958L152.601 237.142ZM152.782 239.003L155.25 238.866L155.297 239.708L151.786 239.903L151.535 235.368L154.961 235.178L155.008 236.02L152.624 236.153L152.782 239.003ZM156.132 239.662L155.88 235.127L156.748 235.079L159.605 238.195L159.184 238.219L159.002 234.954L160.039 234.897L160.29 239.431L159.429 239.479L156.566 236.363L156.987 236.339L157.168 239.604L156.132 239.662ZM163.537 239.329C163.188 239.348 162.859 239.31 162.55 239.215C162.246 239.114 161.977 238.965 161.745 238.765C161.513 238.566 161.327 238.327 161.186 238.049C161.049 237.771 160.971 237.461 160.952 237.12C160.933 236.779 160.977 236.462 161.082 236.171C161.191 235.879 161.35 235.621 161.559 235.397C161.771 235.173 162.024 234.997 162.315 234.868C162.607 234.735 162.93 234.658 163.284 234.639C163.677 234.617 164.035 234.666 164.358 234.787C164.685 234.903 164.963 235.087 165.194 235.338L164.555 235.998C164.389 235.829 164.209 235.707 164.015 235.631C163.82 235.551 163.61 235.517 163.385 235.53C163.174 235.541 162.981 235.587 162.808 235.666C162.635 235.745 162.487 235.852 162.365 235.989C162.242 236.126 162.149 236.285 162.086 236.466C162.026 236.647 162.003 236.845 162.015 237.061C162.027 237.277 162.072 237.472 162.151 237.645C162.234 237.818 162.344 237.965 162.481 238.088C162.618 238.21 162.777 238.301 162.957 238.36C163.138 238.42 163.335 238.443 163.546 238.432C163.771 238.419 163.976 238.364 164.161 238.268C164.346 238.166 164.511 238.021 164.656 237.831L165.365 238.415C165.163 238.691 164.907 238.906 164.595 239.062C164.287 239.218 163.935 239.307 163.537 239.329ZM167.203 239.047L167.1 237.195L167.375 237.816L165.196 234.611L166.31 234.549L167.98 237.01L167.339 237.045L168.733 234.414L169.763 234.357L167.952 237.784L168.149 237.137L168.252 238.989L167.203 239.047Z" fill="white"/>
<path opacity="0.22" d="M116.007 254.872L152.839 252.827C153.419 252.795 153.863 252.298 153.831 251.719C153.799 251.139 153.303 250.695 152.723 250.727L115.891 252.772C115.311 252.804 114.867 253.301 114.899 253.88C114.932 254.46 115.427 254.904 116.007 254.872Z" fill="#016367"/>
<path opacity="0.22" d="M116.633 266.155L153.466 264.109C154.046 264.077 154.49 263.581 154.458 263.001C154.426 262.422 153.929 261.977 153.35 262.009L116.517 264.055C115.938 264.087 115.493 264.583 115.525 265.163C115.557 265.743 116.054 266.187 116.633 266.155Z" fill="#016367"/>
<path opacity="0.22" d="M116.32 260.514L153.153 258.468C153.732 258.436 154.177 257.94 154.145 257.359C154.113 256.78 153.616 256.336 153.037 256.368L116.204 258.414C115.624 258.446 115.18 258.942 115.213 259.522C115.244 260.101 115.74 260.546 116.32 260.514Z" fill="#016367"/>
<path opacity="0.22" d="M116.946 271.796L153.779 269.751C154.358 269.719 154.803 269.222 154.771 268.643C154.739 268.063 154.242 267.619 153.663 267.651L116.83 269.696C116.25 269.728 115.806 270.225 115.838 270.805C115.87 271.384 116.367 271.828 116.946 271.796Z" fill="#016367"/>
<path opacity="0.22" d="M117.26 277.438L154.092 275.392C154.672 275.36 155.116 274.864 155.084 274.284C155.052 273.704 154.556 273.26 153.976 273.292L117.144 275.338C116.564 275.37 116.12 275.866 116.153 276.446C116.184 277.025 116.68 277.47 117.26 277.438Z" fill="#016367"/>
<path opacity="0.22" d="M189.124 273.457L163.018 274.907C161.62 274.985 160.424 273.915 160.346 272.516L159.257 252.914C159.179 251.516 160.25 250.32 161.648 250.242L187.754 248.792C189.151 248.714 190.348 249.784 190.426 251.182L191.514 270.785C191.592 272.183 190.521 273.38 189.124 273.457Z" fill="#016367"/>
<path opacity="0.5" d="M162.241 253.871L187.566 252.465" stroke="white" stroke-width="0.514849" stroke-miterlimit="10" stroke-linecap="round"/>
<path opacity="0.5" d="M162.433 257.344L187.758 255.938" stroke="white" stroke-width="0.514849" stroke-miterlimit="10" stroke-linecap="round"/>
<path opacity="0.5" d="M162.627 260.817L187.952 259.41" stroke="white" stroke-width="0.514849" stroke-miterlimit="10" stroke-linecap="round"/>
<path opacity="0.5" d="M162.819 264.289L188.144 262.883" stroke="white" stroke-width="0.514849" stroke-miterlimit="10" stroke-linecap="round"/>
<path opacity="0.5" d="M163.013 267.762L188.337 266.356" stroke="white" stroke-width="0.514849" stroke-miterlimit="10" stroke-linecap="round"/>
<path opacity="0.5" d="M163.205 271.235L188.53 269.828" stroke="white" stroke-width="0.514849" stroke-miterlimit="10" stroke-linecap="round"/>
<path d="M163.777 270.804C163.632 270.812 163.483 270.774 163.353 270.686C163.039 270.471 162.959 270.045 163.173 269.732L167.174 263.867C167.292 263.694 167.484 263.584 167.694 263.569C167.889 263.551 168.108 263.636 168.249 263.791L170.835 266.632L175.468 258.957C175.577 258.777 175.763 258.656 175.972 258.63C176.18 258.606 176.39 258.676 176.54 258.825L179.356 261.627L185.295 252.914C185.509 252.601 185.935 252.519 186.249 252.734C186.562 252.948 186.643 253.374 186.429 253.688L180.024 263.084C179.909 263.252 179.725 263.361 179.522 263.38C179.308 263.405 179.117 263.327 178.972 263.183L176.19 260.414L171.534 268.129C171.422 268.315 171.229 268.436 171.013 268.457C170.785 268.481 170.584 268.396 170.438 268.236L167.817 265.357L164.305 270.505C164.182 270.689 163.983 270.792 163.777 270.804Z" fill="#002F31"/>
<path d="M186.839 255.609C186.501 255.628 186.193 255.394 186.127 255.054L185.798 253.349L184.092 253.677C183.711 253.75 183.36 253.505 183.288 253.133C183.217 252.761 183.46 252.401 183.833 252.329L186.212 251.871C186.592 251.796 186.946 252.043 187.016 252.415L187.474 254.794C187.546 255.167 187.302 255.527 186.93 255.598C186.9 255.604 186.869 255.607 186.839 255.609Z" fill="#002F31"/>
<g opacity="0.74">
<path d="M132.81 108.942C117.068 94.8388 103.578 75.9116 94.8255 55.62C96.2956 54.9763 97.765 54.332 99.2351 53.6884C107.603 73.4218 123.64 89.5367 140.174 98.8835" fill="white"/>
</g>
<path d="M88.1827 59.0349L73.8959 30.6949L73.4476 38.4146C73.3552 40.3392 73.1015 42.2375 72.6872 44.1101C72.4342 45.275 72.113 46.4337 71.7314 47.573C70.041 52.6172 70.2238 58.0924 72.2395 63.006L73.629 66.3827L73.6589 66.4584L88.1827 59.0349Z" fill="#002F31"/>
<path d="M71.4067 27.7485L73.7304 32.3583L73.4475 38.4139C73.355 40.3385 73.1013 42.2368 72.687 44.1094L65.8509 30.549C65.0793 29.0191 65.698 27.1424 67.2285 26.3708C67.9973 25.9837 68.8523 25.9475 69.603 26.195C70.3627 26.4459 71.0195 26.9797 71.4067 27.7485Z" fill="#016367"/>
<path d="M87.4263 59.5208C87.8302 60.3222 85.0756 62.5263 81.2735 64.4434C77.4706 66.3604 74.0606 67.264 73.6567 66.4626C73.2529 65.6612 76.0075 63.457 79.8096 61.54C83.6124 59.623 87.0225 58.7187 87.4263 59.5208Z" fill="#002F31"/>
<path d="M120.075 43.0591L120.031 42.9902L118.143 39.8651C115.392 35.3228 111.098 31.9196 106.038 30.2785C104.895 29.9074 103.773 29.4771 102.686 28.9871C100.933 28.2065 99.2561 27.2813 97.6539 26.2116L91.1813 21.9813L105.468 50.3213L120.075 43.0591Z" fill="#002F31"/>
<path d="M90.2937 18.2265L92.6174 22.8363L97.654 26.2102C99.2561 27.2807 100.933 28.2058 102.686 28.9857L95.8495 15.4253C95.078 13.8954 93.2013 13.2768 91.6714 14.0476C90.9033 14.4348 90.366 15.1007 90.1186 15.8514C89.8676 16.6132 89.9066 17.4584 90.2937 18.2265Z" fill="#016367"/>
<path d="M106.309 50.0016C106.713 50.8037 110.124 49.8994 113.926 47.9824C117.729 46.0653 120.483 43.8619 120.079 43.0598C119.676 42.2576 116.265 43.1619 112.463 45.079C108.659 46.996 105.905 49.2001 106.309 50.0016Z" fill="#002F31"/>
<path d="M76.6102 4.29285L68.3421 8.46058L69.0386 3.14318C69.2152 1.77803 70.7186 1.01969 71.9281 1.68628L76.6102 4.29285Z" fill="#FFB448"/>
<path d="M89.5893 16.8238L106.271 49.9147L87.3775 59.4388L70.6962 26.3479C68.3224 21.6394 67.3841 16.331 67.9985 11.0963L68.3419 8.46056L76.6099 4.29283L78.9329 5.5843C83.5128 8.2006 87.2162 12.1153 89.5893 16.8238Z" fill="white"/>
<path opacity="0.09" d="M81.8315 35.2213C86.0743 43.6374 93.324 49.5262 101.621 52.2565L87.3762 59.4374L70.6963 26.3486C68.3212 21.638 67.3835 16.3345 67.9979 11.0977L68.3434 8.46336L76.6107 4.29563L78.9337 5.58432C79.5788 5.95202 80.2043 6.34474 80.8118 6.76249C77.1195 15.622 77.1724 25.9795 81.8315 35.2213Z" fill="#016367"/>
<path d="M105.418 53.5716L90.9245 60.8776C90.4088 61.1376 89.7797 60.9304 89.519 60.414L88.694 58.777L105.056 50.5285L105.881 52.1654C106.141 52.6825 105.934 53.3116 105.418 53.5716Z" fill="#FFB448"/>
<path d="M104.671 53.9455L104.85 54.3C105.558 55.7055 105.163 57.3709 103.985 58.3183C103.812 58.4636 103.611 58.5894 103.401 58.6951L96.2429 62.3032C96.0329 62.4089 95.8126 62.4951 95.5922 62.5486C94.1298 62.9316 92.5554 62.2594 91.8471 60.854L91.6685 60.4995L104.671 53.9455Z" fill="#002F31"/>
<path opacity="0.39" d="M88.6515 24.9953C90.1585 27.9841 88.9567 31.6292 85.9678 33.1361C82.9783 34.643 79.3332 33.4412 77.8263 30.4524C76.3194 27.4635 77.5212 23.8185 80.5107 22.3115C83.5003 20.8039 87.1446 22.0057 88.6515 24.9953Z" fill="#016367"/>
<path d="M103.985 58.3183C103.811 58.4636 103.611 58.5894 103.401 58.6951L96.2426 62.3032C96.0327 62.4089 95.8123 62.4951 95.592 62.5486C95.3459 61.7993 96.9071 60.3209 99.1592 59.1858C101.412 58.0507 103.528 57.6754 103.985 58.3183Z" fill="#002F31"/>
<path opacity="0.39" d="M96.0113 41.425L87.0523 45.9409C86.4281 46.2558 85.667 46.0049 85.3521 45.3807L84.8607 44.4062C84.5458 43.782 84.7968 43.0209 85.4209 42.706L94.3799 38.1901C95.0041 37.8752 95.7652 38.1261 96.0801 38.7503L96.5715 39.7248C96.8864 40.349 96.6354 41.1101 96.0113 41.425Z" fill="#016367"/>
<path d="M101.004 172.044L32.0293 192.598C30.9637 192.915 29.8432 192.309 29.5256 191.244L15.0644 142.715L87.896 121.012L102.357 169.54C102.676 170.606 102.07 171.726 101.004 172.044Z" fill="white"/>
<path opacity="0.31" d="M69.1266 181.544L32.0292 192.598C30.965 192.915 29.8438 192.309 29.5269 191.245L15.0656 142.717L35.4129 136.654C35.0938 141.611 35.6297 146.707 37.1304 151.744C41.7583 167.274 54.3567 178.255 69.1266 181.544Z" fill="#F0F5FF"/>
<path d="M87.8968 121.012L15.0651 142.715L12.6212 134.514C11.7544 131.605 13.4101 128.543 16.3197 127.675L78.6139 109.112C81.5235 108.245 84.5854 109.901 85.4529 112.811L87.8968 121.012Z" fill="#016367"/>
<path d="M23.0788 129.693C22.4747 129.366 21.7797 129.295 21.1214 129.49C19.7625 129.895 18.9861 131.331 19.3913 132.69C19.5874 133.348 20.0287 133.89 20.6328 134.217C21.0137 134.423 21.4314 134.528 21.8526 134.528C22.0994 134.528 22.3475 134.491 22.5908 134.419C23.2491 134.223 23.7912 133.782 24.1186 133.178C24.4453 132.574 24.5176 131.878 24.3216 131.22C24.1235 130.563 23.6828 130.02 23.0788 129.693Z" fill="#015053"/>
<path d="M32.0872 126.223C31.4289 126.419 30.8861 126.859 30.5594 127.464C30.2327 128.068 30.1604 128.763 30.3571 129.422C30.5531 130.08 30.9938 130.623 31.5985 130.95C31.9801 131.156 32.3972 131.261 32.8184 131.261C33.0652 131.261 33.3133 131.224 33.5566 131.152C34.2148 130.956 34.7577 130.515 35.0844 129.911C35.4111 129.307 35.4827 128.612 35.2867 127.953C34.8814 126.594 33.4461 125.819 32.0872 126.223Z" fill="#015053"/>
<path d="M55.9764 119.89C55.3723 119.562 54.6765 119.491 54.0183 119.687C53.3601 119.883 52.8172 120.323 52.4905 120.928C52.1638 121.532 52.0922 122.227 52.2882 122.886C52.4842 123.544 52.9249 124.087 53.5297 124.414C53.9113 124.62 54.3283 124.725 54.7495 124.725C54.9963 124.725 55.2444 124.689 55.4877 124.616C56.146 124.42 56.6881 123.979 57.0155 123.375C57.3422 122.771 57.4138 122.075 57.2178 121.417C57.0218 120.759 56.5811 120.217 55.9764 119.89Z" fill="#015053"/>
<path d="M45.0109 123.157C44.4069 122.831 43.7118 122.759 43.0529 122.955C42.3946 123.151 41.8524 123.592 41.5251 124.196C41.1984 124.8 41.1261 125.496 41.3221 126.155C41.5181 126.813 41.9588 127.355 42.5635 127.682C42.9444 127.889 43.3622 127.994 43.7834 127.994C44.0301 127.994 44.2783 127.958 44.5216 127.885C45.8805 127.48 46.6562 126.045 46.2516 124.686C46.0556 124.027 45.6149 123.485 45.0109 123.157Z" fill="#015053"/>
<path d="M66.9429 116.622C66.3382 116.295 65.6438 116.224 64.9849 116.419C64.3266 116.615 63.7845 117.056 63.4571 117.661C63.1297 118.265 63.0581 118.96 63.2541 119.619C63.4501 120.277 63.8908 120.819 64.4956 121.146C64.8765 121.353 65.2942 121.457 65.7154 121.457C65.9622 121.457 66.2103 121.421 66.4536 121.349C67.8125 120.943 68.5882 119.509 68.1837 118.15C67.9877 117.492 67.547 116.949 66.9429 116.622Z" fill="#015053"/>
<path d="M79.1492 114.882C78.9532 114.224 78.5118 113.681 77.9078 113.355C77.3038 113.028 76.608 112.957 75.9497 113.152C75.2915 113.348 74.7493 113.789 74.4219 114.394C74.0952 114.998 74.0236 115.693 74.2197 116.352C74.5526 117.467 75.5779 118.189 76.6858 118.189C76.9284 118.189 77.1745 118.154 77.4184 118.082C78.0767 117.885 78.6196 117.444 78.9462 116.84C79.2736 116.236 79.3459 115.541 79.1492 114.882Z" fill="#015053"/>
<path d="M21.7397 133.057C21.0988 133.057 20.5073 132.639 20.3148 131.994L18.3373 125.359C18.103 124.571 18.5507 123.743 19.3375 123.508C20.1257 123.273 20.9529 123.722 21.1878 124.508L23.1653 131.144C23.3996 131.931 22.9519 132.759 22.1651 132.994C22.0233 133.036 21.8801 133.057 21.7397 133.057Z" fill="#002F31"/>
<path d="M32.7054 129.789C32.0646 129.789 31.473 129.371 31.2805 128.726L29.303 122.091C29.0687 121.303 29.5164 120.476 30.3032 120.241C31.0914 120.006 31.9186 120.454 32.1535 121.241L34.131 127.876C34.3653 128.664 33.9177 129.492 33.1308 129.726C32.989 129.769 32.8458 129.789 32.7054 129.789Z" fill="#002F31"/>
<path d="M43.6709 126.521C43.03 126.521 42.4385 126.104 42.246 125.459L40.2685 118.823C40.0342 118.036 40.4819 117.208 41.2687 116.973C42.0569 116.739 42.8841 117.187 43.119 117.973L45.0965 124.609C45.3308 125.396 44.8831 126.224 44.0963 126.459C43.9545 126.501 43.812 126.521 43.6709 126.521Z" fill="#002F31"/>
<path d="M54.6375 123.254C53.9966 123.254 53.4051 122.837 53.2126 122.191L51.235 115.556C51.0008 114.769 51.4484 113.94 52.236 113.706C53.0228 113.471 53.8513 113.92 54.0856 114.706L56.0631 121.342C56.2973 122.129 55.8497 122.957 55.0629 123.191C54.9211 123.234 54.7779 123.254 54.6375 123.254Z" fill="#002F31"/>
<path d="M65.6031 119.986C64.9623 119.986 64.3708 119.568 64.1782 118.923L62.2014 112.287C61.9672 111.501 62.4148 110.672 63.2023 110.438C63.9892 110.204 64.8177 110.652 65.0519 111.439L67.0288 118.074C67.263 118.861 66.8154 119.689 66.0278 119.924C65.8867 119.966 65.7435 119.986 65.6031 119.986Z" fill="#002F31"/>
<path d="M76.5693 116.718C75.9284 116.718 75.3369 116.3 75.1444 115.655L73.1675 109.02C72.9333 108.233 73.3809 107.405 74.1685 107.17C74.9553 106.935 75.7839 107.384 76.0181 108.171L77.9949 114.806C78.2292 115.593 77.7815 116.422 76.9947 116.656C76.8529 116.699 76.7097 116.718 76.5693 116.718Z" fill="#002F31"/>
<path opacity="0.22" d="M36.2146 144.653L25.8377 147.745L28.5726 156.923L38.9496 153.831L36.2146 144.653Z" fill="#016367"/>
<path opacity="0.22" d="M51.3572 140.14L40.9803 143.233L43.7152 152.411L54.0921 149.318L51.3572 140.14Z" fill="#016367"/>
<path opacity="0.22" d="M66.5002 135.629L56.1233 138.721L58.8582 147.899L69.2352 144.806L66.5002 135.629Z" fill="#016367"/>
<path d="M59.005 140.982C58.7854 140.982 58.5831 140.84 58.5171 140.618C58.4365 140.348 58.5901 140.065 58.8598 139.985L64.8945 138.186C65.1642 138.106 65.4478 138.259 65.5277 138.529C65.6084 138.799 65.4547 139.082 65.185 139.162L59.1503 140.96C59.1024 140.976 59.053 140.982 59.005 140.982Z" fill="#016367"/>
<path d="M59.6555 143.165C59.4358 143.165 59.2336 143.022 59.1675 142.801C59.0869 142.531 59.2405 142.248 59.5102 142.168L65.5449 140.37C65.8139 140.29 66.0982 140.443 66.1782 140.712C66.2588 140.982 66.1052 141.266 65.8355 141.346L59.8008 143.144C59.7528 143.158 59.7034 143.165 59.6555 143.165Z" fill="#016367"/>
<path d="M60.3062 145.349C60.0865 145.349 59.8842 145.206 59.8182 144.984C59.7376 144.715 59.8912 144.431 60.1609 144.351L66.1956 142.553C66.4653 142.472 66.7489 142.626 66.8288 142.896C66.9095 143.165 66.7558 143.449 66.4862 143.529L60.4514 145.327C60.4035 145.342 60.3541 145.349 60.3062 145.349Z" fill="#016367"/>
<path opacity="0.22" d="M81.6441 131.115L71.2672 134.207L74.0021 143.385L84.379 140.292L81.6441 131.115Z" fill="#016367"/>
<path opacity="0.22" d="M40.1399 157.828L29.763 160.92L32.4979 170.098L42.8749 167.006L40.1399 157.828Z" fill="#016367"/>
<path opacity="0.22" d="M55.2838 153.315L44.9069 156.407L47.6418 165.585L58.0187 162.493L55.2838 153.315Z" fill="#016367"/>
<path opacity="0.22" d="M70.4264 148.803L60.0494 151.895L62.7844 161.073L73.1613 157.981L70.4264 148.803Z" fill="#016367"/>
<path opacity="0.22" d="M85.5707 144.289L75.1937 147.381L77.9287 156.559L88.3056 153.467L85.5707 144.289Z" fill="#016367"/>
<path opacity="0.22" d="M44.0089 170.813L33.632 173.905L36.3669 183.083L46.7439 179.991L44.0089 170.813Z" fill="#016367"/>
<path opacity="0.22" d="M59.1543 166.299L48.7774 169.391L51.5123 178.569L61.8892 175.477L59.1543 166.299Z" fill="#016367"/>
<path opacity="0.22" d="M74.2975 161.786L63.9206 164.878L66.6556 174.056L77.0325 170.964L74.2975 161.786Z" fill="#016367"/>
<path opacity="0.22" d="M89.4397 157.274L79.0627 160.367L81.7977 169.544L92.1746 166.452L89.4397 157.274Z" fill="#016367"/>
<path d="M51.657 171.653C51.4373 171.653 51.2351 171.51 51.169 171.289C51.0884 171.019 51.242 170.736 51.5117 170.655L57.5464 168.856C57.8161 168.777 58.0997 168.929 58.1797 169.199C58.2603 169.469 58.1067 169.752 57.837 169.833L51.8023 171.632C51.7543 171.646 51.7049 171.653 51.657 171.653Z" fill="#016367"/>
<path d="M52.3075 173.837C52.0878 173.837 51.8856 173.693 51.8195 173.472C51.7389 173.203 51.8925 172.919 52.1622 172.838L58.1969 171.04C58.4659 170.962 58.7502 171.113 58.8302 171.382C58.9108 171.652 58.7572 171.936 58.4875 172.016L52.4528 173.815C52.4041 173.83 52.3554 173.837 52.3075 173.837Z" fill="#016367"/>
<path d="M52.9582 176.019C52.7385 176.019 52.5362 175.876 52.4702 175.655C52.3896 175.385 52.5432 175.102 52.8129 175.021L58.8476 173.222C59.1173 173.144 59.4009 173.295 59.4808 173.565C59.5615 173.835 59.4079 174.118 59.1382 174.199L53.1034 175.998C53.0555 176.012 53.0061 176.019 52.9582 176.019Z" fill="#016367"/>
<path d="M66.4639 157.505C66.2922 157.556 66.1017 157.542 65.9328 157.45L63.7802 156.286C63.441 156.102 63.3144 155.679 63.4979 155.34C63.6814 155 64.1055 154.874 64.444 155.057L65.9829 155.89L67.9785 152.199C68.1627 151.859 68.5853 151.734 68.9252 151.916C69.2637 152.1 69.3902 152.524 69.2074 152.863L66.8788 157.168C66.7864 157.338 66.6349 157.454 66.4639 157.505Z" fill="#016367"/>
<path d="M32.2093 153.211C32.0376 153.262 31.8472 153.248 31.6783 153.156L29.5256 151.992C29.1864 151.809 29.0599 151.385 29.2434 151.046C29.4269 150.706 29.8502 150.58 30.1894 150.764L31.7283 151.596L33.7246 147.905C33.9088 147.566 34.3314 147.44 34.6713 147.623C35.0098 147.806 35.1363 148.23 34.9535 148.569L32.6257 152.874C32.5318 153.045 32.3803 153.161 32.2093 153.211Z" fill="#016367"/>
<path d="M81.606 152.992C81.4344 153.044 81.2439 153.029 81.075 152.937L78.9223 151.773C78.5831 151.59 78.4566 151.166 78.6401 150.827C78.8236 150.487 79.2476 150.362 79.5861 150.545L81.125 151.377L83.1206 147.686C83.3048 147.347 83.7274 147.221 84.0673 147.404C84.4058 147.587 84.5323 148.011 84.3495 148.351L82.021 152.655C81.9293 152.826 81.7777 152.942 81.606 152.992Z" fill="#016367"/>
<path d="M250.56 68.3544L253.824 71.6189L255.774 69.6686L252.51 66.4041L250.56 68.3544Z" fill="#016367"/>
<path d="M252.314 66.7254L255.448 69.8595C256.394 70.8048 257.926 70.8048 258.872 69.8595L259.493 69.2374C260.438 68.2921 260.438 66.7594 259.493 65.8141L256.359 62.68C255.414 61.7346 253.881 61.7346 252.936 62.68L252.313 63.3021C251.369 64.2474 251.369 65.78 252.314 66.7254Z" fill="#002F31"/>
<path d="M219.081 58.2717H227.863V55.262H219.081V58.2717Z" fill="#016367"/>
<path d="M216.589 55.1918H230.354C231.432 55.1918 232.307 54.3174 232.307 53.2393V47.8809C232.307 46.8028 231.432 45.9284 230.354 45.9284H216.589C215.511 45.9284 214.637 46.8028 214.637 47.8809V53.2393C214.637 54.3174 215.511 55.1918 216.589 55.1918Z" fill="#002F31"/>
<path d="M233.213 138.672C255.259 133.265 268.748 111.009 263.341 88.9624C257.934 66.9159 235.678 53.4271 213.632 58.8343C191.585 64.2415 178.096 86.4971 183.504 108.544C188.911 130.59 211.166 144.079 233.213 138.672Z" fill="#002F31"/>
<path d="M249.829 125.149C264.41 110.567 264.41 86.9251 249.829 72.3433C235.247 57.7616 211.605 57.7616 197.023 72.3433C182.442 86.9251 182.442 110.567 197.023 125.149C211.605 139.73 235.247 139.73 249.829 125.149Z" fill="white"/>
<path opacity="0.09" d="M231.719 62.3254C229.05 61.7186 226.282 61.4024 223.43 61.4024C202.806 61.4024 186.088 78.1205 186.088 98.7451C186.088 119.37 202.805 136.088 223.43 136.088C226.282 136.088 229.05 135.772 231.719 135.165C215.084 131.391 202.664 116.519 202.664 98.7458C202.664 80.9718 215.084 66.0997 231.719 62.3254Z" fill="#016367"/>
<path d="M223.428 99.965C224.103 99.965 224.649 99.4186 224.649 98.7451V71.4026C224.649 70.729 224.103 70.182 223.428 70.182C222.754 70.182 222.208 70.7283 222.208 71.4026V98.7451C222.208 99.4186 222.754 99.965 223.428 99.965Z" fill="#002F31"/>
<path d="M233.937 118.009C234.145 118.009 234.356 117.955 234.55 117.843C235.132 117.503 235.329 116.757 234.99 116.174L224.483 98.1306C224.143 97.5481 223.396 97.3514 222.814 97.6906C222.231 98.0298 222.034 98.7764 222.373 99.3588L232.88 117.403C233.107 117.792 233.517 118.009 233.937 118.009Z" fill="#002F31"/>
<path d="M220.073 98.7451C220.073 100.598 221.575 102.1 223.428 102.1C225.282 102.1 226.784 100.598 226.784 98.7451C226.784 96.892 225.282 95.3899 223.428 95.3899C221.575 95.3899 220.073 96.892 220.073 98.7451Z" fill="#016367"/>
<path d="M223.428 68.0557C223.765 68.0557 224.039 67.7825 224.039 67.4454V63.7288C224.039 63.3917 223.765 63.1185 223.428 63.1185C223.091 63.1185 222.818 63.3917 222.818 63.7288V67.4454C222.818 67.7825 223.091 68.0557 223.428 68.0557Z" fill="#002F31"/>
<path d="M239.078 72.2491C239.288 72.2491 239.493 72.1393 239.607 71.944L241.465 68.7258C241.633 68.4338 241.533 68.0606 241.241 67.8924C240.95 67.7235 240.576 67.8236 240.408 68.1155L238.55 71.3337C238.381 71.6257 238.481 71.9989 238.773 72.1671C238.869 72.2227 238.974 72.2491 239.078 72.2491Z" fill="#002F31"/>
<path d="M250.535 83.7056C250.638 83.7056 250.743 83.6792 250.839 83.6236L254.057 81.7656C254.349 81.5974 254.449 81.2241 254.28 80.9322C254.111 80.6402 253.738 80.5402 253.447 80.7091L250.229 82.567C249.937 82.7352 249.837 83.1085 250.006 83.4004C250.119 83.5964 250.324 83.7056 250.535 83.7056Z" fill="#002F31"/>
<path d="M254.727 99.3554H258.444C258.781 99.3554 259.054 99.0822 259.054 98.7451C259.054 98.408 258.781 98.1348 258.444 98.1348H254.727C254.39 98.1348 254.117 98.408 254.117 98.7451C254.117 99.0822 254.391 99.3554 254.727 99.3554Z" fill="#002F31"/>
<path d="M253.752 116.863C253.963 116.863 254.168 116.754 254.281 116.558C254.449 116.266 254.349 115.893 254.058 115.725L250.84 113.866C250.549 113.697 250.174 113.796 250.006 114.089C249.837 114.381 249.937 114.754 250.229 114.922L253.448 116.781C253.544 116.837 253.649 116.863 253.752 116.863Z" fill="#002F31"/>
<path d="M240.937 129.68C241.041 129.68 241.146 129.653 241.241 129.598C241.533 129.429 241.634 129.056 241.465 128.764L239.607 125.546C239.438 125.254 239.065 125.154 238.773 125.323C238.481 125.492 238.381 125.865 238.55 126.156L240.408 129.375C240.521 129.571 240.726 129.68 240.937 129.68Z" fill="#002F31"/>
<path d="M223.428 134.371C223.765 134.371 224.039 134.098 224.039 133.761V130.045C224.039 129.708 223.765 129.435 223.428 129.435C223.091 129.435 222.818 129.708 222.818 130.045V133.761C222.818 134.098 223.091 134.371 223.428 134.371Z" fill="#002F31"/>
<path d="M205.92 129.68C206.131 129.68 206.336 129.571 206.449 129.375L208.307 126.156C208.476 125.865 208.376 125.491 208.084 125.323C207.793 125.154 207.419 125.254 207.251 125.546L205.393 128.764C205.224 129.056 205.324 129.43 205.616 129.598C205.711 129.653 205.816 129.68 205.92 129.68Z" fill="#002F31"/>
<path d="M193.104 116.863C193.208 116.863 193.313 116.837 193.408 116.781L196.627 114.923C196.919 114.754 197.019 114.381 196.85 114.089C196.682 113.798 196.308 113.698 196.017 113.866L192.798 115.725C192.506 115.894 192.406 116.266 192.575 116.558C192.688 116.754 192.893 116.863 193.104 116.863Z" fill="#002F31"/>
<path d="M188.413 99.3554H192.129C192.466 99.3554 192.739 99.0822 192.739 98.7451C192.739 98.408 192.466 98.1348 192.129 98.1348H188.413C188.076 98.1348 187.803 98.408 187.803 98.7451C187.803 99.0822 188.076 99.3554 188.413 99.3554Z" fill="#002F31"/>
<path d="M196.322 83.7056C196.533 83.7056 196.738 83.5957 196.851 83.4004C197.02 83.1085 196.92 82.7352 196.628 82.567L193.409 80.7091C193.118 80.5402 192.744 80.6402 192.576 80.9322C192.407 81.2241 192.507 81.5974 192.799 81.7656L196.018 83.6236C196.114 83.6792 196.219 83.7056 196.322 83.7056Z" fill="#002F31"/>
<path d="M207.779 72.2492C207.883 72.2492 207.988 72.2228 208.084 72.1672C208.376 71.9989 208.476 71.6257 208.307 71.3338L206.449 68.1155C206.28 67.8243 205.906 67.7242 205.615 67.8924C205.323 68.0606 205.223 68.4339 205.392 68.7258L207.25 71.944C207.363 72.1394 207.568 72.2492 207.779 72.2492Z" fill="#002F31"/>
<path d="M159.323 151.5C171.778 142.335 194.736 122.29 194.736 99.0197H108.265C108.265 122.29 131.222 142.335 143.678 151.5C131.223 160.665 108.265 180.71 108.265 203.98H194.737C194.736 180.71 171.778 160.665 159.323 151.5Z" fill="white"/>
<path d="M190.288 194.83C189.003 190.036 185.215 186.339 180.486 184.834C174.777 183.017 166.932 181.295 159.743 182.36C159.661 182.372 159.564 182.373 159.456 182.365C158.236 182.282 157.284 181.259 157.147 180.044L154.151 153.544C154.008 152.283 154.548 151.042 155.569 150.287L157.423 148.916C164.216 143.931 173.452 136.223 180.593 126.845C181.349 125.851 180.533 124.438 179.298 124.62C172.04 125.696 157.177 126.984 144.739 122.157C133.881 117.937 128.023 121.202 125.185 124.169C123.595 125.832 123.604 128.445 125.092 130.2C131.766 138.07 139.614 144.542 145.571 148.916L147.372 150.249C148.421 151.025 148.961 152.312 148.778 153.604L145.157 179.226C144.935 180.795 143.375 181.804 141.853 181.362L140.58 180.991C136.447 179.789 132.147 179.265 127.847 179.438C122.511 179.653 117.632 182.737 115.375 187.577C113.406 191.798 112.059 196.226 111.614 200.787H191.38C191.184 198.771 190.812 196.783 190.288 194.83Z" fill="#016367"/>
<path d="M191.051 91.4461H111.949C107.766 91.4461 104.376 94.8367 104.376 99.0197H198.626C198.626 94.8367 195.234 91.4461 191.051 91.4461Z" fill="#002F31"/>
<path d="M111.949 211.554H191.051C195.234 211.554 198.625 208.163 198.625 203.98H104.375C104.375 208.163 107.766 211.554 111.949 211.554Z" fill="#002F31"/>
<path d="M45.2489 235.201C40.3896 225.074 44.8763 212.877 55.2797 208.368C64.6751 204.297 75.7972 208.156 80.6468 217.174C83.5592 222.589 83.7031 228.689 81.6262 233.927C80.4703 236.843 79.8363 239.947 79.9955 243.08C80.1116 245.356 80.4911 247.549 81.3176 249.271L75.3996 252.111L69.4817 254.951C68.6552 253.228 67.1823 251.56 65.4787 250.046C63.1327 247.96 60.3107 246.513 57.31 245.588C52.2032 244.015 47.7429 240.399 45.2489 235.201Z" fill="#016367"/>
<path opacity="0.67" d="M55.8494 229.131C56.1449 228.901 56.5466 228.967 56.7649 229.252L58.4053 231.403C59.2588 231.11 59.9442 231.331 60.4968 231.54C61.0674 231.752 61.3886 231.855 61.8696 231.624C62.3492 231.394 62.4694 231.08 62.6613 230.501C62.8663 229.873 63.1242 229.092 64.1293 228.609C65.1323 228.128 65.9018 228.416 66.5218 228.649C67.0918 228.864 67.4122 228.964 67.889 228.736C68.3665 228.506 68.4882 228.194 68.6772 227.615C68.8614 227.052 69.1165 226.38 69.879 225.898L69.2277 223.272C69.1416 222.923 69.3417 222.569 69.7053 222.482C70.0556 222.395 70.4094 222.607 70.4963 222.958L77.6723 251.888C77.7467 252.194 77.5945 252.502 77.3199 252.633C77.2803 252.652 77.24 252.668 77.1955 252.68C76.8438 252.766 76.4907 252.554 76.4038 252.203L70.2287 227.308C70.1056 227.492 70.0181 227.717 69.9194 228.02C69.7129 228.65 69.4564 229.43 68.4534 229.911C67.4504 230.392 66.681 230.104 66.0609 229.872C65.491 229.656 65.1705 229.556 64.6937 229.785C64.2127 230.015 64.0918 230.33 63.9006 230.908C63.6963 231.536 63.4377 232.318 62.4347 232.799C61.4303 233.282 60.6587 232.994 60.0401 232.76C59.7398 232.648 59.5084 232.576 59.2873 232.557L74.844 252.952C75.063 253.239 75.0067 253.647 74.7203 253.868C74.6828 253.895 74.6452 253.917 74.6063 253.936C74.3318 254.067 73.9967 253.994 73.8042 253.744L55.7264 230.044C55.5061 229.758 55.5624 229.35 55.8494 229.131Z" fill="white"/>
<path d="M76.2197 264.085L84.2257 260.243C85.2836 259.736 85.7292 258.467 85.2217 257.409L81.3174 249.272L69.4809 254.952L73.3851 263.088C73.8932 264.146 75.1618 264.592 76.2197 264.085Z" fill="white"/>
<path d="M79.7166 265.23L82.9314 263.688C84.1992 263.08 84.733 261.559 84.1248 260.292L76.3197 264.037C76.9279 265.304 78.4488 265.839 79.7166 265.23Z" fill="#002F31"/>
<path d="M70.2622 259.22C70.0523 259.146 69.8702 258.992 69.7659 258.776C69.5581 258.342 69.7409 257.823 70.1739 257.614L82.9593 251.479C83.3924 251.27 83.9123 251.453 84.1201 251.887C84.3279 252.321 84.1451 252.84 83.7121 253.048L70.9267 259.183C70.7105 259.288 70.4728 259.294 70.2622 259.22Z" fill="#002F31"/>
<path d="M71.9973 262.834C71.7874 262.76 71.6053 262.606 71.501 262.39C71.2932 261.956 71.476 261.436 71.909 261.228L84.6944 255.093C85.1274 254.885 85.6474 255.068 85.8552 255.501C86.063 255.934 85.8802 256.454 85.4472 256.662L72.6618 262.798C72.4456 262.901 72.2072 262.908 71.9973 262.834Z" fill="#002F31"/>
<path opacity="0.09" d="M152.981 151.5C140.532 160.668 117.573 180.707 117.573 203.979H108.266C108.266 180.707 131.225 160.668 143.68 151.5C131.225 142.332 108.266 122.293 108.266 99.0211H117.573C117.573 122.293 140.532 142.332 152.981 151.5Z" fill="#016367"/>
</svg>
